HIERARCHY
ROOT Hips
{
	OFFSET 0.000000 0.000000 0.000000
	CHANNELS 6 Xposition Yposition Zposition Zrotation Yrotation Xrotation 
	JOINT LHipJoint
	{
		OFFSET 0.000000 0.000000 0.000000
		CHANNELS 3 Zrotation Yrotation Xrotation
		JOINT LeftUpLeg
		{
			OFFSET 1.363060 -1.794630 0.839290
			CHANNELS 3 Zrotation Yrotation Xrotation
			JOINT LeftLeg
			{
				OFFSET 2.448110 -6.726130 0.000000
				CHANNELS 3 Zrotation Yrotation Xrotation
				JOINT LeftFoot
				{
					OFFSET 2.562200 -7.039590 0.000000
					CHANNELS 3 Zrotation Yrotation Xrotation
					JOINT LeftToeBase
					{
						OFFSET 0.157640 -0.433110 2.322550
						CHANNELS 3 Zrotation Yrotation Xrotation
						End Site
						{
							OFFSET 0.000000 0.000000 0.000000
						}
					}
				}
			}
		}
	}
	JOINT RHipJoint
	{
		OFFSET 0.000000 0.000000 0.000000
		CHANNELS 3 Zrotation Yrotation Xrotation
		JOINT RightUpLeg
		{
			OFFSET -1.305520 -1.794630 0.839290
			CHANNELS 3 Zrotation Yrotation Xrotation
			JOINT RightLeg
			{
				OFFSET -2.542530 -6.985550 0.000000
				CHANNELS 3 Zrotation Yrotation Xrotation
				JOINT RightFoot
				{
					OFFSET -2.568260 -7.056230 0.000000
					CHANNELS 3 Zrotation Yrotation Xrotation
					JOINT RightToeBase
					{
						OFFSET -0.164730 -0.452590 2.363150
						CHANNELS 3 Zrotation Yrotation Xrotation
						End Site
						{
							OFFSET 0.000000 0.000000 0.000000
						}
					}
				}
			}
		}
	}
	JOINT LowerBack
	{
		OFFSET 0.000000 0.000000 0.000000
		CHANNELS 3 Zrotation Yrotation Xrotation
		JOINT Spine
		{
			OFFSET 0.028270 2.035590 -0.193380
			CHANNELS 3 Zrotation Yrotation Xrotation
			JOINT Spine1
			{
				OFFSET 0.056720 2.048850 -0.042750
				CHANNELS 3 Zrotation Yrotation Xrotation
				JOINT Neck
				{
					OFFSET 0.000000 0.000000 0.000000
					CHANNELS 3 Zrotation Yrotation Xrotation
					JOINT Neck1
					{
						OFFSET -0.054170 1.746240 0.172020
						CHANNELS 3 Zrotation Yrotation Xrotation
						JOINT Head
						{
							OFFSET 0.104070 1.761360 -0.123970
							CHANNELS 3 Zrotation Yrotation Xrotation
							End Site
							{
								OFFSET 0.000000 0.000000 0.000000
							}
						}
					}
				}
				JOINT LeftShoulder
				{
					OFFSET 0.000000 0.000000 0.000000
					CHANNELS 3 Zrotation Yrotation Xrotation
					JOINT LeftArm
					{
						OFFSET 3.362410 1.200890 -0.311210
						CHANNELS 3 Zrotation Yrotation Xrotation
						JOINT LeftForeArm
						{
							OFFSET 4.983000 -0.000000 -0.000000
							CHANNELS 3 Zrotation Yrotation Xrotation
							JOINT LeftHand
							{
								OFFSET 3.483560 -0.000000 -0.000000
								CHANNELS 3 Zrotation Yrotation Xrotation
								JOINT LeftFingerBase
								{
									OFFSET 0.000000 0.000000 0.000000
									CHANNELS 3 Zrotation Yrotation Xrotation
									JOINT LeftHandIndex1
									{
										OFFSET 0.715260 -0.000000 -0.000000
										CHANNELS 3 Zrotation Yrotation Xrotation
										End Site
										{
											OFFSET 0.000000 0.000000 0.000000
										}
									}
								}
								JOINT LThumb
								{
									OFFSET 0.000000 0.000000 0.000000
									CHANNELS 3 Zrotation Yrotation Xrotation
									End Site
									{
										OFFSET 0.000000 0.000000 0.000000
									}
								}
							}
						}
					}
				}
				JOINT RightShoulder
				{
					OFFSET 0.000000 0.000000 0.000000
					CHANNELS 3 Zrotation Yrotation Xrotation
					JOINT RightArm
					{
						OFFSET -3.136600 1.374050 -0.404650
						CHANNELS 3 Zrotation Yrotation Xrotation
						JOINT RightForeArm
						{
							OFFSET -5.241900 -0.000000 -0.000000
							CHANNELS 3 Zrotation Yrotation Xrotation
							JOINT RightHand
							{
								OFFSET -3.444170 -0.000000 -0.000000
								CHANNELS 3 Zrotation Yrotation Xrotation
								JOINT RightFingerBase
								{
									OFFSET 0.000000 0.000000 0.000000
									CHANNELS 3 Zrotation Yrotation Xrotation
									JOINT RightHandIndex1
									{
										OFFSET -0.622530 -0.000000 -0.000000
										CHANNELS 3 Zrotation Yrotation Xrotation
										End Site
										{
											OFFSET 0.000000 0.000000 0.000000
										}
									}
								}
								JOINT RThumb
								{
									OFFSET 0.000000 0.000000 0.000000
									CHANNELS 3 Zrotation Yrotation Xrotation
									End Site
									{
										OFFSET 0.000000 0.000000 0.000000
									}
								}
							}
						}
					}
				}
			}
		}
	}
}
MOTION
Frames: 12
Frame Time: 0.008333
4.618755 17.182999 0.341716 -76.133318 83.246139 -59.799315 -10.221384 0.181219 6.571926 2.824647 -7.295260 -45.251939 0.692511 1.213358 46.314325 3.716172 18.180468 -11.714088 -0.598600 0.000000 -16.073700 7.104445 -3.387794 5.721978 25.979753 4.845638 -7.652446 4.630341 2.305709 0.077134 -0.636362 -0.801186 -8.777640 179.903500 0.000000 -15.531500 3.609634 -0.426274 -14.085487 -0.735701 -1.585667 -5.399064 -9.935526 -1.533724 0.980052 15.042718 -11.741217 -7.233728 -4.308527 -0.368508 0.208649 0.000000 0.000000 0.000000 2.295513 12.370120 -0.278415 -61.380907 10.069938 7.025065 -1.198940 -61.978372 0.021847 21.101652 -13.636516 -2.582320 -0.177200 0.072345 0.000000 0.000000 0.000000 0.000000 0.000000 0.000000 0.000000 19.909129 -5.508157 -3.422551 71.765020 9.484953 -4.500752 179.900973 80.652353 179.917855 -14.979256 28.865213 -4.046688 0.203256 -0.837044 -0.000000 0.000000 0.000000 0.000000 0.000000 0.000000 0.000000 
4.871045 17.191750 0.372919 -67.860851 83.007770 -51.602250 -10.100058 0.239485 6.667445 2.385915 -6.624884 -45.907304 0.534336 1.049137 42.858751 3.753345 17.996707 -11.082468 -0.306500 -0.000000 -17.538600 7.161504 -3.406995 5.525863 25.778266 3.950297 -5.990435 4.627277 2.423264 -1.095572 -0.478088 -0.310653 -7.999504 179.868400 0.000000 -16.242800 3.408290 0.230603 -14.060955 -0.870374 -0.909015 -5.440320 -10.044738 -0.853505 0.875019 14.987499 -11.065100 -7.097594 -4.302744 -0.368735 0.236787 0.000000 0.000000 0.000000 2.157625 13.316883 -0.193005 -59.587555 10.290778 6.097942 -1.192162 -61.660585 0.028458 21.274636 -13.570152 -2.587434 -0.178414 0.053161 0.000000 0.000000 0.000000 0.000000 0.000000 0.000000 0.000000 19.744536 -4.386318 -3.440111 72.410368 9.902898 -2.676942 179.970237 80.722609 179.917349 -14.701729 29.186601 -4.018911 0.200242 -0.858273 -0.000000 0.000000 0.000000 0.000000 0.000000 0.000000 0.000000 
5.122558 17.196195 0.399637 -60.055627 82.644833 -43.948334 -10.067368 0.283156 6.702148 1.843437 -5.717119 -46.320485 0.343219 0.871936 39.182871 3.714252 17.515892 -10.283716 0.028700 -0.000000 -19.437900 7.142114 -3.458035 5.310624 25.534886 3.083007 -4.285608 4.625808 2.502584 -2.139879 -0.310176 0.241542 -7.145461 179.841400 -0.000000 -16.380200 3.241244 0.868854 -13.949806 -0.989064 -0.249363 -5.467446 -10.121202 -0.191453 0.759271 14.863540 -10.310948 -6.950815 -4.288591 -0.367987 0.267525 0.000000 0.000000 0.000000 1.950615 14.323217 -0.100444 -57.826912 10.386377 5.086900 -1.195322 -61.332855 0.034840 21.447418 -13.544780 -2.600657 -0.180403 0.035746 0.000000 0.000000 0.000000 0.000000 0.000000 0.000000 0.000000 19.484928 -3.205912 -3.459756 72.945502 10.355623 -0.874407 -179.950657 80.921640 179.916711 -14.379839 29.464579 -3.970593 0.195279 -0.877581 -0.000000 0.000000 0.000000 0.000000 0.000000 0.000000 0.000000 
5.372637 17.196395 0.422241 -53.315309 82.206026 -37.448373 -10.099275 0.299095 6.665510 1.178985 -4.612287 -46.491070 0.111959 0.675702 35.345860 3.587930 16.711679 -9.373085 0.365401 0.000000 -21.622000 7.081769 -3.544749 5.068172 25.234702 2.213954 -2.540317 4.621773 2.535722 -3.045574 -0.130685 0.882208 -6.214562 179.829600 0.000000 -15.877800 3.113298 1.466233 -13.730802 -1.088187 0.371629 -5.474664 -10.163966 0.431437 0.634939 14.670679 -9.517693 -6.798513 -4.265286 -0.366190 0.299682 0.000000 0.000000 0.000000 1.660662 15.335744 -0.001761 -56.097078 10.411451 3.959301 -1.206215 -61.029855 0.040826 21.608231 -13.528363 -2.614491 -0.182808 0.020000 0.000000 0.000000 0.000000 0.000000 0.000000 0.000000 0.000000 19.132081 -2.020654 -3.480098 73.388588 10.878476 0.932059 -179.865323 81.256846 179.915984 -14.025844 29.695663 -3.904546 0.188726 -0.894599 -0.000000 0.000000 0.000000 0.000000 0.000000 0.000000 0.000000 
5.621575 17.192201 0.440996 -47.846098 81.726495 -32.285028 -10.167357 0.287738 6.563599 0.403859 -3.348290 -46.484283 -0.163949 0.459583 31.420430 3.369902 15.572130 -8.392029 0.667700 0.000000 -23.971300 7.010707 -3.661511 4.813728 24.884443 1.376991 -0.791117 4.613394 2.523131 -3.805933 0.054700 1.594265 -5.205320 179.838800 0.000000 -14.679099 3.044616 2.014711 -13.424684 -1.162407 0.942013 -5.464038 -10.173940 1.003720 0.508786 14.412103 -8.670913 -6.642153 -4.231520 -0.363298 0.333042 0.000000 0.000000 0.000000 1.313231 16.377504 0.104658 -54.429997 10.342813 2.725270 -1.226989 -60.710483 0.046339 21.750545 -13.515327 -2.626937 -0.185550 0.005987 0.000000 0.000000 0.000000 0.000000 0.000000 0.000000 0.000000 18.676090 -0.817294 -3.510477 73.758330 11.433651 2.716353 -179.776175 81.690659 179.914923 -13.641156 29.867145 -3.819981 0.180306 -0.909324 -0.000000 0.000000 0.000000 0.000000 0.000000 0.000000 0.000000 
5.869443 17.183804 0.456545 -43.520316 81.241158 -28.325649 -10.246732 0.257242 6.401648 -0.480827 -1.966396 -46.339729 -0.489310 0.226959 27.481113 3.060949 14.098320 -7.389041 0.900400 -0.000000 -26.396100 6.952712 -3.798439 4.546829 24.478283 0.559606 0.945319 4.599655 2.466620 -4.404751 0.243673 2.384007 -4.126474 179.876901 0.000000 -12.819900 3.036637 2.512784 -13.034687 -1.211524 1.459767 -5.435188 -10.153843 1.523534 0.383767 14.095448 -7.794179 -6.486100 -4.187559 -0.359373 0.366592 0.000000 0.000000 0.000000 0.914267 17.427144 0.215893 -52.829964 10.208427 1.382744 -1.255457 -60.383887 0.051252 21.868911 -13.486115 -2.633594 -0.188355 -0.006363 0.000000 0.000000 0.000000 0.000000 0.000000 0.000000 0.000000 18.126267 0.378576 -3.550538 74.071398 12.028877 4.485299 -179.687104 82.210437 179.913593 -13.240958 29.975317 -3.721093 0.170563 -0.921632 -0.000000 0.000000 0.000000 0.000000 0.000000 0.000000 0.000000 
6.116364 17.171503 0.469672 -40.090093 80.769050 -25.329465 -10.317332 0.220761 6.197505 -1.467012 -0.514960 -46.089633 -0.861960 -0.018200 23.603011 2.669033 12.308797 -6.395441 1.041200 0.000000 -28.973300 6.908943 -3.960583 4.235733 24.037593 -0.254513 2.222352 4.583196 2.272181 -3.865052 0.409288 3.278255 -3.497687 179.951600 0.000000 -10.322900 3.079596 2.963821 -12.556521 -1.237238 1.928790 -5.386485 -10.107581 1.994340 0.262986 13.732732 -6.899509 -6.334204 -4.134404 -0.354510 0.399249 0.000000 0.000000 0.000000 0.483642 18.484016 0.330053 -51.309484 10.005705 -0.056670 -1.290650 -60.035130 0.055472 21.963090 -13.432991 -2.632761 -0.191045 -0.017029 0.000000 0.000000 0.000000 0.000000 0.000000 0.000000 0.000000 17.498027 1.556139 -3.601594 74.341239 12.657354 6.231571 -179.601108 82.794105 179.912021 -12.840375 30.018626 -3.612879 0.159979 -0.931542 -0.000000 0.000000 0.000000 0.000000 0.000000 0.000000 0.000000 
6.362921 17.155747 0.481007 -37.348676 80.340303 -23.059239 -10.370453 0.173012 5.961415 -2.533127 0.938492 -45.787001 -1.274678 -0.272159 19.869319 2.211181 10.231960 -5.476412 1.071200 0.000000 -31.464401 6.894812 -4.123133 3.917661 23.523718 -1.075677 3.491005 4.558774 2.058653 -3.255380 0.558621 4.225642 -2.778454 -179.933200 -0.000000 -7.386200 3.155770 3.366517 -12.025646 -1.245497 2.349442 -5.324820 -10.039720 2.416486 0.146623 13.334948 -6.007951 -6.187042 -4.074216 -0.349027 0.431127 0.000000 0.000000 0.000000 0.026983 19.512219 0.443501 -49.859297 9.788405 -1.584955 -1.328439 -59.692871 0.058956 22.034256 -13.343002 -2.622036 -0.193434 -0.026176 0.000000 0.000000 0.000000 0.000000 0.000000 0.000000 0.000000 16.811054 2.695463 -3.659940 74.579560 13.312236 7.957078 -179.521418 83.425466 179.910367 -12.458385 30.000556 -3.502022 0.149322 -0.939054 0.000000 0.000000 0.000000 0.000000 0.000000 0.000000 0.000000 
6.609621 17.137052 0.491386 -35.103765 79.974158 -21.311236 -10.398456 0.113289 5.709887 -3.646770 2.316596 -45.450604 -1.709781 -0.531636 16.346323 1.711821 7.928717 -4.655897 0.996500 0.000000 -34.013300 6.913624 -4.278641 3.597265 22.923951 -1.931655 4.848829 4.524429 1.855227 -2.826591 0.698602 5.207009 -1.852530 -179.775300 0.000000 -4.066701 3.242695 3.721994 -11.460138 -1.242436 2.724870 -5.252685 -9.955351 2.793165 0.039624 12.918417 -5.131809 -6.048713 -4.009235 -0.343128 0.461020 0.000000 0.000000 0.000000 -0.430912 20.515361 0.553934 -48.488671 9.541500 -3.178957 -1.367994 -59.338315 0.061684 22.089217 -13.221473 -2.603214 -0.195511 -0.033724 0.000000 0.000000 0.000000 0.000000 0.000000 0.000000 0.000000 16.092051 3.785862 -3.725297 74.792461 13.981984 9.652237 -179.449562 84.083913 179.908699 -12.111922 29.928825 -3.394909 0.139174 -0.944307 0.000000 0.000000 0.000000 0.000000 0.000000 0.000000 0.000000 
6.857084 17.116001 0.501456 -33.210104 79.680447 -19.927665 -10.396825 0.041224 5.464430 -4.757532 3.535509 -45.088233 -2.143806 -0.793881 13.090796 1.201834 5.480978 -3.977560 0.833100 -0.000001 -36.525100 6.962529 -4.425218 3.274176 22.239435 -2.835588 6.280900 4.479023 1.665324 -2.585375 0.832917 6.196933 -0.734417 -179.576900 -0.000000 -0.449400 3.323008 4.033613 -10.881188 -1.233231 3.059189 -5.174103 -9.860176 3.128275 -0.056696 12.498612 -4.285919 -5.920507 -3.942266 -0.337099 0.488572 0.000000 0.000000 0.000000 -0.873050 21.478976 0.658875 -47.196472 9.278876 -4.819630 -1.406971 -58.976958 0.063662 22.133824 -13.074423 -2.578294 -0.197234 -0.039686 0.000000 0.000000 0.000000 0.000000 0.000000 0.000000 0.000000 15.369595 4.814880 -3.794315 74.983004 14.654877 11.311438 -179.386471 84.755634 179.907125 -11.816611 29.816600 -3.298024 0.130133 -0.947487 -0.000000 0.000000 0.000000 0.000000 0.000000 0.000000 0.000000 
7.106210 17.093171 0.511655 -31.611511 79.458981 -18.832545 -10.367722 -0.044590 5.247814 -5.793132 4.518339 -44.705093 -2.549934 -1.055470 10.147336 0.713367 2.991284 -3.479145 0.610700 0.000001 -38.921200 7.032524 -4.560309 2.953072 21.491563 -3.773905 7.773313 4.424280 1.496411 -2.540375 0.964291 7.157369 0.498910 0.649899 0.000001 -2.791300 3.394953 4.307689 -10.316951 -1.220313 3.357205 -5.095146 -9.760203 3.426335 -0.144131 12.088342 -3.482984 -5.801185 -3.876258 -0.331274 0.514262 0.000000 0.000000 0.000000 -1.291111 22.377079 0.755871 -45.973398 9.039772 -6.488061 -1.441700 -58.634670 0.064953 22.174224 -12.906101 -2.548772 -0.198566 -0.044210 0.000000 0.000000 0.000000 0.000000 0.000000 0.000000 0.000000 14.669020 5.774200 -3.861997 75.152965 15.312531 12.929425 -179.332420 85.430642 179.905743 -11.583697 29.681076 -3.216751 0.122666 -0.948833 -0.000000 0.000000 0.000000 0.000000 0.000000 0.000000 0.000000 
7.357470 17.069117 0.522662 -30.185843 79.310587 -17.900453 -10.313856 -0.140197 5.075059 -6.695486 5.194913 -44.266666 -2.904204 -1.311813 7.532123 0.275786 0.587287 -3.177975 0.368600 0.000000 -41.166900 7.123366 -4.685937 2.628653 20.670077 -4.766433 9.320582 4.357964 1.344793 -2.691770 1.103270 8.071908 1.892904 0.900600 0.000000 -6.161600 3.438341 4.548804 -9.778985 -1.209710 3.624752 -5.017220 -9.660802 3.693432 -0.218063 11.704610 -2.732482 -5.694628 -3.813701 -0.325811 0.536806 0.000000 0.000000 0.000000 -1.657579 23.222932 0.843347 -44.829569 8.792230 -8.160400 -1.472348 -58.291325 0.065595 22.215314 -12.739032 -2.519648 -0.199632 -0.047097 0.000000 0.000000 0.000000 0.000000 0.000000 0.000000 0.000000 14.021203 6.657766 -3.926125 75.302042 15.945113 14.498568 -179.286369 86.103769 179.904607 -11.417646 29.541243 -3.154279 0.117009 -0.948662 -0.000000 0.000000 0.000000 0.000000 0.000000 0.000000 0.000000 
